<svg width="128" height="156" viewBox="0 0 128 156" fill="none" xmlns="http://www.w3.org/2000/svg">
<path d="M28.1936 79.3369L39.8699 86.1049L33.3524 97.4443H94.6476L64.0099 44.092L57.4924 55.4511L45.8163 48.6633L64.0099 17L118 111H10L28.1936 79.3369Z" fill="#BE3144"/>
<path d="M19.7713 149H16.4759L21.4972 134.455H25.4602L30.4744 149H27.179L23.5355 137.778H23.4219L19.7713 149ZM19.5653 143.283H27.3494V145.683H19.5653V143.283ZM40.7911 141.202L38.0212 141.372C37.9739 141.135 37.8721 140.922 37.7158 140.733C37.5596 140.539 37.3536 140.385 37.0979 140.271C36.847 140.153 36.5463 140.094 36.196 140.094C35.7272 140.094 35.3318 140.193 35.0099 140.392C34.6879 140.586 34.5269 140.847 34.5269 141.173C34.5269 141.434 34.6311 141.654 34.8394 141.834C35.0478 142.014 35.4052 142.158 35.9119 142.267L37.8863 142.665C38.9469 142.883 39.7376 143.233 40.2585 143.716C40.7793 144.199 41.0397 144.833 41.0397 145.619C41.0397 146.334 40.829 146.962 40.4076 147.501C39.9909 148.041 39.418 148.463 38.6889 148.766C37.9644 149.064 37.1287 149.213 36.1817 149.213C34.7376 149.213 33.5871 148.912 32.73 148.311C31.8778 147.705 31.3782 146.881 31.2315 145.839L34.2073 145.683C34.2973 146.124 34.5151 146.46 34.8607 146.692C35.2064 146.919 35.6491 147.033 36.1888 147.033C36.7192 147.033 37.1453 146.931 37.4673 146.727C37.794 146.519 37.9597 146.251 37.9644 145.925C37.9597 145.65 37.8437 145.425 37.6164 145.25C37.3891 145.07 37.0388 144.933 36.5653 144.838L34.6761 144.462C33.6107 144.249 32.8176 143.879 32.2968 143.354C31.7807 142.828 31.5227 142.158 31.5227 141.344C31.5227 140.643 31.7121 140.039 32.0908 139.533C32.4744 139.026 33.0118 138.635 33.7031 138.361C34.3991 138.086 35.2135 137.949 36.1462 137.949C37.5241 137.949 38.6084 138.24 39.3991 138.822C40.1945 139.405 40.6585 140.198 40.7911 141.202ZM47.6739 149.213C46.5564 149.213 45.5953 148.976 44.7903 148.503C43.9902 148.025 43.3746 147.362 42.9438 146.514C42.5176 145.667 42.3045 144.691 42.3045 143.588C42.3045 142.471 42.52 141.491 42.9509 140.648C43.3865 139.8 44.0044 139.14 44.8045 138.666C45.6047 138.188 46.5564 137.949 47.6597 137.949C48.6114 137.949 49.4447 138.122 50.1597 138.467C50.8746 138.813 51.4404 139.298 51.8571 139.923C52.2738 140.548 52.5034 141.282 52.546 142.125H49.6909C49.6104 141.58 49.3973 141.143 49.0517 140.811C48.7108 140.475 48.2634 140.307 47.7094 140.307C47.2406 140.307 46.8311 140.435 46.4807 140.69C46.135 140.941 45.8652 141.308 45.671 141.791C45.4769 142.274 45.3798 142.859 45.3798 143.545C45.3798 144.241 45.4745 144.833 45.6639 145.321C45.858 145.809 46.1303 146.18 46.4807 146.436C46.8311 146.692 47.2406 146.82 47.7094 146.82C48.055 146.82 48.3652 146.749 48.6398 146.607C48.9191 146.464 49.1488 146.259 49.3287 145.989C49.5134 145.714 49.6341 145.385 49.6909 145.001H52.546C52.4987 145.835 52.2714 146.569 51.8642 147.203C51.4617 147.833 50.9054 148.325 50.1952 148.68C49.4849 149.036 48.6445 149.213 47.6739 149.213ZM59.2548 149.213C58.1326 149.213 57.1667 148.986 56.357 148.531C55.5521 148.072 54.9318 147.423 54.4962 146.585C54.0606 145.742 53.8428 144.746 53.8428 143.595C53.8428 142.473 54.0606 141.488 54.4962 140.641C54.9318 139.793 55.545 139.133 56.3357 138.659C57.1312 138.186 58.0639 137.949 59.134 137.949C59.8537 137.949 60.5237 138.065 61.144 138.297C61.769 138.524 62.3135 138.867 62.7775 139.327C63.2462 139.786 63.6108 140.364 63.8712 141.06C64.1317 141.751 64.2619 142.561 64.2619 143.489V144.32H55.0502V142.445H61.4139C61.4139 142.009 61.3192 141.623 61.1298 141.287C60.9404 140.951 60.6776 140.688 60.3414 140.499C60.01 140.304 59.6241 140.207 59.1837 140.207C58.7245 140.207 58.3173 140.314 57.9621 140.527C57.6118 140.735 57.3371 141.017 57.1383 141.372C56.9394 141.723 56.8376 142.113 56.8329 142.544V144.327C56.8329 144.866 56.9323 145.333 57.1312 145.726C57.3348 146.119 57.6212 146.422 57.9906 146.635C58.3599 146.848 58.7978 146.955 59.3045 146.955C59.6407 146.955 59.9484 146.907 60.2278 146.812C60.5071 146.718 60.7462 146.576 60.9451 146.386C61.144 146.197 61.2955 145.965 61.3996 145.69L64.1979 145.875C64.0559 146.547 63.7647 147.134 63.3244 147.636C62.8888 148.134 62.3253 148.522 61.634 148.801C60.9475 149.076 60.1544 149.213 59.2548 149.213ZM69.0619 142.693V149H66.0363V138.091H68.9198V140.016H69.0477C69.2891 139.381 69.694 138.879 70.2621 138.51C70.8303 138.136 71.5192 137.949 72.3289 137.949C73.0865 137.949 73.747 138.115 74.3104 138.446C74.8739 138.777 75.3119 139.251 75.6244 139.866C75.9369 140.477 76.0931 141.206 76.0931 142.054V149H73.0675V142.594C73.0723 141.926 72.9018 141.405 72.5562 141.031C72.2105 140.652 71.7347 140.463 71.1286 140.463C70.7214 140.463 70.3616 140.551 70.0491 140.726C69.7413 140.901 69.4998 141.157 69.3246 141.493C69.1542 141.824 69.0666 142.224 69.0619 142.693ZM87.3544 141.202L84.5845 141.372C84.5372 141.135 84.4354 140.922 84.2791 140.733C84.1229 140.539 83.9169 140.385 83.6612 140.271C83.4103 140.153 83.1096 140.094 82.7592 140.094C82.2905 140.094 81.8951 140.193 81.5732 140.392C81.2512 140.586 81.0902 140.847 81.0902 141.173C81.0902 141.434 81.1944 141.654 81.4027 141.834C81.611 142.014 81.9685 142.158 82.4751 142.267L84.4496 142.665C85.5102 142.883 86.3009 143.233 86.8217 143.716C87.3426 144.199 87.603 144.833 87.603 145.619C87.603 146.334 87.3923 146.962 86.9709 147.501C86.5542 148.041 85.9813 148.463 85.2521 148.766C84.5277 149.064 83.692 149.213 82.745 149.213C81.3009 149.213 80.1503 148.912 79.2933 148.311C78.4411 147.705 77.9415 146.881 77.7947 145.839L80.7706 145.683C80.8606 146.124 81.0784 146.46 81.424 146.692C81.7696 146.919 82.2124 147.033 82.7521 147.033C83.2824 147.033 83.7086 146.931 84.0305 146.727C84.3572 146.519 84.523 146.251 84.5277 145.925C84.523 145.65 84.407 145.425 84.1797 145.25C83.9524 145.07 83.602 144.933 83.1286 144.838L81.2393 144.462C80.174 144.249 79.3809 143.879 78.8601 143.354C78.344 142.828 78.0859 142.158 78.0859 141.344C78.0859 140.643 78.2753 140.039 78.6541 139.533C79.0376 139.026 79.575 138.635 80.2663 138.361C80.9624 138.086 81.7768 137.949 82.7095 137.949C84.0874 137.949 85.1716 138.24 85.9624 138.822C86.7578 139.405 87.2218 140.198 87.3544 141.202ZM96.3039 144.355V138.091H99.3295V149H96.4246V147.018H96.311C96.0648 147.658 95.6552 148.171 95.0823 148.56C94.5141 148.948 93.8205 149.142 93.0014 149.142C92.2722 149.142 91.6306 148.976 91.0766 148.645C90.5227 148.313 90.0894 147.842 89.7769 147.232C89.4692 146.621 89.3129 145.889 89.3082 145.037V138.091H92.3337V144.497C92.3385 145.141 92.5113 145.65 92.8522 146.024C93.1931 146.398 93.65 146.585 94.2229 146.585C94.5875 146.585 94.9284 146.502 95.2457 146.337C95.5629 146.166 95.8186 145.915 96.0127 145.584C96.2116 145.252 96.3086 144.843 96.3039 144.355ZM110.626 141.202L107.856 141.372C107.809 141.135 107.707 140.922 107.551 140.733C107.395 140.539 107.189 140.385 106.933 140.271C106.682 140.153 106.381 140.094 106.031 140.094C105.562 140.094 105.167 140.193 104.845 140.392C104.523 140.586 104.362 140.847 104.362 141.173C104.362 141.434 104.466 141.654 104.675 141.834C104.883 142.014 105.24 142.158 105.747 142.267L107.721 142.665C108.782 142.883 109.573 143.233 110.094 143.716C110.614 144.199 110.875 144.833 110.875 145.619C110.875 146.334 110.664 146.962 110.243 147.501C109.826 148.041 109.253 148.463 108.524 148.766C107.8 149.064 106.964 149.213 106.017 149.213C104.573 149.213 103.422 148.912 102.565 148.311C101.713 147.705 101.213 146.881 101.067 145.839L104.042 145.683C104.132 146.124 104.35 146.46 104.696 146.692C105.042 146.919 105.484 147.033 106.024 147.033C106.554 147.033 106.98 146.931 107.302 146.727C107.629 146.519 107.795 146.251 107.8 145.925C107.795 145.65 107.679 145.425 107.452 145.25C107.224 145.07 106.874 144.933 106.4 144.838L104.511 144.462C103.446 144.249 102.653 143.879 102.132 143.354C101.616 142.828 101.358 142.158 101.358 141.344C101.358 140.643 101.547 140.039 101.926 139.533C102.31 139.026 102.847 138.635 103.538 138.361C104.234 138.086 105.049 137.949 105.981 137.949C107.359 137.949 108.444 138.24 109.234 138.822C110.03 139.405 110.494 140.198 110.626 141.202Z" fill="#E6E6E7"/>
</svg>
